PathFileType	4	(X/Y/Z)	C:\Users\italobelli\Desktop\GitHub\PTbot_officialCBL\Personal_Results\SHRUG21_noisy1.trc
DataRate	CameraRate	NumFrames	NumMarkers	Units	OrigDataRate	OrigDataStartFrame	OrigNumFrames
112.250000	112.250000	21	9	m	112.250000	394	450
Frame#	Time		gu		centelbow		EpL		centpxt8		centijc7		ij		ts		aa		ai
			X1	Y1	Z1	X2	Y2	Z2	X3	Y3	Z3	X4	Y4	Z4	X5	Y5	Z5	X6	Y6	Z6	X7	Y7	Z7	X8	Y8	Z8	X9	Y9	Z9

394	3.5011	-0.093784	-0.012937	0.16398	-0.13948	-0.24947	0.18586	-0.1251	-0.24663	0.21457	-0.046816	-0.15316	-0.008669	-0.046816	0.031938	-0.008669	0	0	0	-0.13881	0.03426	0.047694	-0.1191	0.025307	0.16498	-0.16643	-0.075832	0.04923
395	3.51	-0.093799	-0.012912	0.16395	-0.13957	-0.24937	0.18561	-0.12518	-0.24653	0.21432	-0.046816	-0.15316	-0.008669	-0.046816	0.031938	-0.008669	0	0	0	-0.13883	0.034278	0.047687	-0.11909	0.025341	0.16497	-0.16644	-0.075814	0.049234
396	3.5189	-0.093813	-0.012887	0.16393	-0.13965	-0.24928	0.18536	-0.12525	-0.24643	0.21407	-0.046816	-0.15316	-0.008669	-0.046816	0.031938	-0.008669	0	0	0	-0.13884	0.034296	0.047679	-0.11908	0.025374	0.16496	-0.16645	-0.075796	0.049239
397	3.5278	-0.093825	-0.012862	0.1639	-0.13974	-0.24918	0.18512	-0.12533	-0.24633	0.21382	-0.046816	-0.15316	-0.008669	-0.046816	0.031938	-0.008669	0	0	0	-0.13885	0.034314	0.047671	-0.11907	0.025407	0.16495	-0.16646	-0.075778	0.049244
398	3.5367	-0.093836	-0.012838	0.16388	-0.13983	-0.24909	0.18487	-0.1254	-0.24623	0.21357	-0.046816	-0.15316	-0.008669	-0.046816	0.031938	-0.008669	0	0	0	-0.13885	0.034331	0.047663	-0.11906	0.02544	0.16494	-0.16647	-0.075761	0.049249
399	3.5457	-0.093846	-0.012814	0.16386	-0.13991	-0.24899	0.18463	-0.12548	-0.24613	0.21333	-0.046816	-0.15316	-0.008669	-0.046816	0.031938	-0.008669	0	0	0	-0.13886	0.034349	0.047655	-0.11905	0.025473	0.16493	-0.16647	-0.075743	0.049254
400	3.5546	-0.093855	-0.012789	0.16383	-0.14	-0.2489	0.18439	-0.12555	-0.24603	0.21308	-0.046816	-0.15316	-0.008669	-0.046816	0.031938	-0.008669	0	0	0	-0.13886	0.034367	0.047646	-0.11903	0.025505	0.16492	-0.16647	-0.075726	0.04926
401	3.5635	-0.093862	-0.012765	0.16381	-0.14008	-0.2488	0.18414	-0.12563	-0.24593	0.21283	-0.046816	-0.15316	-0.008669	-0.046816	0.031938	-0.008669	0	0	0	-0.13886	0.034384	0.047637	-0.11902	0.025538	0.16491	-0.16647	-0.075709	0.049266
402	3.5724	-0.093868	-0.012742	0.16378	-0.14017	-0.2487	0.1839	-0.1257	-0.24583	0.21259	-0.046816	-0.15316	-0.008669	-0.046816	0.031938	-0.008669	0	0	0	-0.13886	0.034402	0.047629	-0.119	0.02557	0.1649	-0.16647	-0.075691	0.049271
403	3.5813	-0.093873	-0.012718	0.16376	-0.14025	-0.2486	0.18366	-0.12578	-0.24573	0.21235	-0.046816	-0.15316	-0.008669	-0.046816	0.031938	-0.008669	0	0	0	-0.13885	0.034419	0.04762	-0.11898	0.025602	0.16489	-0.16646	-0.075674	0.049277
404	3.5902	-0.093876	-0.012694	0.16373	-0.14034	-0.2485	0.18342	-0.12585	-0.24563	0.21211	-0.046816	-0.15316	-0.008669	-0.046816	0.031938	-0.008669	0	0	0	-0.13885	0.034437	0.04761	-0.11895	0.025634	0.16488	-0.16646	-0.075657	0.049284
405	3.5991	-0.093878	-0.012671	0.16371	-0.14042	-0.2484	0.18319	-0.12592	-0.24553	0.21187	-0.046816	-0.15316	-0.008669	-0.046816	0.031938	-0.008669	0	0	0	-0.13884	0.034454	0.047601	-0.11893	0.025666	0.16487	-0.16645	-0.07564	0.04929
406	3.608	-0.093879	-0.012647	0.16368	-0.1405	-0.2483	0.18295	-0.126	-0.24543	0.21163	-0.046816	-0.15316	-0.008669	-0.046816	0.031938	-0.008669	0	0	0	-0.13883	0.034472	0.047592	-0.11891	0.025698	0.16486	-0.16644	-0.075622	0.049297
407	3.6169	-0.093878	-0.012624	0.16366	-0.14059	-0.24821	0.18271	-0.12607	-0.24533	0.21139	-0.046816	-0.15316	-0.008669	-0.046816	0.031938	-0.008669	0	0	0	-0.13882	0.034489	0.047583	-0.11888	0.02573	0.16485	-0.16642	-0.075605	0.049304
408	3.6258	-0.093876	-0.0126	0.16363	-0.14067	-0.24811	0.18248	-0.12614	-0.24522	0.21115	-0.046816	-0.15316	-0.008669	-0.046816	0.031938	-0.008669	0	0	0	-0.13881	0.034507	0.047573	-0.11885	0.025762	0.16484	-0.16641	-0.075588	0.049311
409	3.6347	-0.093873	-0.012577	0.16361	-0.14075	-0.24801	0.18225	-0.12621	-0.24512	0.21092	-0.046816	-0.15316	-0.008669	-0.046816	0.031938	-0.008669	0	0	0	-0.13879	0.034524	0.047564	-0.11882	0.025794	0.16483	-0.16639	-0.075571	0.049318
410	3.6437	-0.093869	-0.012553	0.16358	-0.14083	-0.24791	0.18202	-0.12628	-0.24502	0.21068	-0.046816	-0.15316	-0.008669	-0.046816	0.031938	-0.008669	0	0	0	-0.13877	0.034542	0.047554	-0.11879	0.025826	0.16482	-0.16637	-0.075554	0.049326
411	3.6526	-0.093863	-0.01253	0.16356	-0.14091	-0.24781	0.18179	-0.12635	-0.24492	0.21045	-0.046816	-0.15316	-0.008669	-0.046816	0.031938	-0.008669	0	0	0	-0.13876	0.034559	0.047545	-0.11876	0.025858	0.16481	-0.16635	-0.075537	0.049334
412	3.6615	-0.093857	-0.012506	0.16353	-0.14099	-0.24771	0.18156	-0.12641	-0.24481	0.21022	-0.046816	-0.15316	-0.008669	-0.046816	0.031938	-0.008669	0	0	0	-0.13874	0.034577	0.047536	-0.11872	0.02589	0.1648	-0.16633	-0.07552	0.049342
413	3.6704	-0.093849	-0.012482	0.16351	-0.14106	-0.24761	0.18133	-0.12648	-0.24471	0.20999	-0.046816	-0.15316	-0.008669	-0.046816	0.031938	-0.008669	0	0	0	-0.13872	0.034595	0.047526	-0.11869	0.025922	0.16479	-0.16631	-0.075502	0.049351
414	3.6793	-0.093839	-0.012459	0.16348	-0.14114	-0.24751	0.18111	-0.12655	-0.24461	0.20976	-0.046816	-0.15316	-0.008669	-0.046816	0.031938	-0.008669	0	0	0	-0.13869	0.034612	0.047517	-0.11865	0.025954	0.16478	-0.16628	-0.075485	0.04936
